<?xml version="1.0" encoding="UTF-8"?>
<svg version="1.1" xmlns="http://www.w3.org/2000/svg" width="512" height="512">
<path d="M0 0 C12.76492384 11.9376254 22.35442798 25.65657866 23 43.625 C22.55971999 57.32871542 17.12929187 68.05911197 8.75 78.625 C8.22792969 79.31335938 7.70585937 80.00171875 7.16796875 80.7109375 C-24.90653283 120.49955971 -89.91137757 131.83422901 -137.18286133 136.94189453 C-148.15489979 137.94514463 -159.17894974 137.86872162 -170.1875 137.875 C-171.2521347 137.87567474 -172.31676941 137.87634949 -173.41366577 137.87704468 C-231.05836586 137.81918205 -298.65084597 127.60063726 -343.25 87.625 C-344.41595703 86.60019531 -344.41595703 86.60019531 -345.60546875 85.5546875 C-356.95550633 74.96652852 -364.98466279 61.36720632 -365.71630859 45.62744141 C-365.9781817 29.57727698 -358.78188869 15.65299941 -347.88671875 4.12890625 C-280.71286177 -59.66137868 -160.1690989 -60.95802126 0 0 Z " fill="#397ADD" transform="translate(427.25,62.375)"/>
<path d="M0 0 C3.81069628 1.78872529 6.68468937 4.22649679 9.8125 7 C58.54005871 48.93991463 130.0323218 61.21150841 192.375 61.25 C193.8573262 61.25101212 193.8573262 61.25101212 195.36959839 61.25204468 C260.21193336 61.1821778 335.62357619 47.65482725 384.3984375 1.328125 C386 0 386 0 388 0 C388.10215385 7.18574763 388.17177946 14.37130519 388.21972656 21.55761719 C388.23973329 23.99779254 388.26694745 26.43792062 388.30175781 28.87792969 C388.35075874 32.40311411 388.37307916 35.92765989 388.390625 39.453125 C388.41127014 40.5286261 388.43191528 41.6041272 388.45318604 42.71221924 C388.45775053 58.42715991 381.30931671 72.20742053 370.63671875 83.49609375 C324.36955463 127.43276368 250.2793561 139.23299728 188.96875 138.18359375 C130.05981429 136.58582781 60.05489887 125.99496216 17 82 C4.42985694 68.67215126 -0.3818513 54.56419645 -0.1953125 36.5234375 C-0.1924826 35.47217682 -0.18965271 34.42091614 -0.18673706 33.33779907 C-0.17564143 30.01674476 -0.15055706 26.69597127 -0.125 23.375 C-0.11495646 21.10807684 -0.10583303 18.84114941 -0.09765625 16.57421875 C-0.07573701 11.04938515 -0.04236699 5.52471265 0 0 Z " fill="#522DD6" transform="translate(62,262)"/>
<path d="M0 0 C3.68412058 1.72811842 6.16723147 3.8720148 9.125 6.6875 C14.11734478 11.32312994 19.26539839 15.32334762 25 19 C26.06347656 19.68578125 27.12695312 20.3715625 28.22265625 21.078125 C100.15544436 66.3554126 197.45275725 70.78999133 278.67285156 53.01586914 C316.79302518 44.12177939 353.07031535 29.32253017 382.85009766 3.50439453 C386.90279038 0 386.90279038 0 388 0 C388.10225696 7.16743645 388.1718217 14.33468161 388.21972656 21.50268555 C388.23971822 23.93602529 388.26692074 26.36931775 388.30175781 28.80249023 C388.61635368 51.35623782 386.35550941 66.58554033 370.359375 83.6015625 C369.58078125 84.39304687 368.8021875 85.18453125 368 86 C367.26265625 86.75023437 366.5253125 87.50046875 365.765625 88.2734375 C358.62677318 95.1008629 350.48287938 100.04494092 342 105 C341.41686035 105.3491748 340.8337207 105.69834961 340.23291016 106.05810547 C283.32399712 139.90610629 205.21095939 144.26480889 141 135 C139.47294434 134.7831958 139.47294434 134.7831958 137.91503906 134.56201172 C94.23719967 128.14465263 40.36087832 113.52001668 11.9375 76.875 C2.87928202 64.011657 -0.17659501 52.32205828 -0.09765625 36.81640625 C-0.0962413 35.76090073 -0.09482635 34.7053952 -0.09336853 33.61790466 C-0.08779722 30.26607357 -0.07525002 26.91431071 -0.0625 23.5625 C-0.05748129 21.28190201 -0.05291903 19.00130297 -0.04882812 16.72070312 C-0.0378372 11.14711237 -0.02112776 5.57356106 0 0 Z " fill="#474DD9" transform="translate(62,162)"/>
<path d="M0 0 C1.11121319 0.94993526 2.22206378 1.9002947 3.33276367 2.85083008 C3.95140793 3.38001541 4.57005219 3.90920074 5.20744324 4.454422 C6.71008971 5.75003359 8.19513276 7.06602353 9.67578125 8.38671875 C46.68269813 40.67868029 99.50854201 53.96071111 147 60 C147.90669434 60.11859375 148.81338867 60.2371875 149.74755859 60.359375 C181.63665284 64.32412455 215.20289803 63.32537535 247 59 C248.04768555 58.86078125 249.09537109 58.7215625 250.17480469 58.578125 C276.68612153 54.93186939 302.0829017 47.65972636 327 38 C327.8142041 37.68562988 328.6284082 37.37125977 329.46728516 37.04736328 C348.79839309 29.44758032 366.10617957 18.13153162 381.76318359 4.59179688 C385.80985836 1.09507082 385.80985836 1.09507082 388 0 C388.07675517 6.7402406 388.12889239 13.4803664 388.16479492 20.22094727 C388.17977948 22.50875053 388.20017412 24.79652557 388.22631836 27.08422852 C388.47734745 49.63254761 386.37980014 65.47759412 371 83 C370.11054687 84.01513672 370.11054687 84.01513672 369.203125 85.05078125 C359.12039055 95.80138914 345.92821165 103.21260683 333 110 C331.36998047 110.87398437 331.36998047 110.87398437 329.70703125 111.765625 C257.5585919 147.96671766 160.58164499 147.49331436 85.1875 122.75 C62.874593 115.15862998 42.00337417 105.39890774 24 90 C23.31808594 89.46246094 22.63617188 88.92492187 21.93359375 88.37109375 C11.16627685 79.6265996 2.62602044 66.75518781 0 53 C-0.2680475 48.90565454 -0.23300806 44.82424553 -0.1953125 40.72265625 C-0.1924826 39.5561705 -0.18965271 38.38968475 -0.18673706 37.18785095 C-0.17558388 33.47929424 -0.15048786 29.77098315 -0.125 26.0625 C-0.11496393 23.54101912 -0.10583918 21.01953445 -0.09765625 18.49804688 C-0.07566044 12.3319481 -0.04223118 6.16599161 0 0 Z " fill="#5A15D4" transform="translate(62,361)"/>
</svg>
